<svg width="16.000000" height="16.000000" viewBox="0 0 16 16" fill="none" xmlns="http://www.w3.org/2000/svg" xmlns:xlink="http://www.w3.org/1999/xlink">
	<desc>
			Created with Pixso.
	</desc>
	<defs>
		<clipPath id="clip3410_209444">
			<rect id="Icon" width="16.000000" height="16.000000" fill="white" fill-opacity="0"/>
		</clipPath>
	</defs>
	<g clip-path="url(#clip3410_209444)">
		<path id="path" d="M6.61 1.37L8.37 1.37C8.77 1.37 9.64 1.21 9.74 1.7C9.77 1.87 9.76 2.46 9.75 2.66C9.95 2.68 10.2 2.79 10.39 2.86C11.64 3.37 12.74 4.17 13.55 5.26C14.57 6.63 14.96 8.07 14.95 9.74C15.93 9.81 16.31 11.22 15.41 11.91C15.01 12.22 14.48 12.12 14.02 12.06C13.76 13.33 12.72 14.29 11.43 14.42C11.17 14.44 10.9 14.43 10.64 14.43L9.39 14.43L5.15 14.43C4.89 14.43 4.63 14.44 4.37 14.4C3.41 14.26 2.55 13.54 2.16 12.67C2.08 12.47 2.02 12.27 1.96 12.06C1.49 12.09 1.11 12.24 0.66 11.96C-0.28 11.39 -0.08 9.99 1.05 9.74C1.05 9.22 1.05 8.84 1.13 8.33C1.52 5.88 3.21 3.83 5.51 2.91C5.73 2.82 6 2.71 6.23 2.66L6.23 2.05C6.23 1.71 6.2 1.42 6.61 1.37ZM9.75 3.56C9.76 3.83 9.75 4.12 9.75 4.39L9.75 7.47C9.75 8.42 9.79 8.41 8.83 8.41L7.04 8.41C6.69 8.41 6.24 8.46 6.23 7.97C6.22 7.49 6.23 7.01 6.23 6.53L6.23 3.56C5.73 3.64 5.23 4 4.77 4.21C4.81 4.5 4.85 4.78 4.9 5.06L5.12 6.63C5.16 6.83 5.22 7.04 5.08 7.21C4.94 7.39 4.66 7.42 4.48 7.27C4.32 7.14 4.32 6.88 4.29 6.7L4.22 6.18L4.02 4.78C2.7 5.84 1.83 7.78 1.88 9.45C1.88 9.52 1.88 9.59 1.88 9.65C3.18 9.47 4.64 9.39 5.96 9.34L6.57 9.32C8.71 9.25 10.97 9.34 13.09 9.55C13.43 9.58 13.76 9.62 14.1 9.65C14.11 8.01 13.58 6.4 12.4 5.21C12.27 5.08 12.14 4.96 12 4.83C11.9 5.28 11.84 5.89 11.78 6.35C11.76 6.53 11.71 6.96 11.65 7.11C11.53 7.43 11.06 7.45 10.9 7.16C10.8 7 10.87 6.8 10.9 6.63L11.09 5.37C11.15 5 11.21 4.63 11.26 4.26C10.8 4.01 10.27 3.64 9.75 3.56ZM7.51 11.74C6.45 11.74 5.35 11.78 4.3 11.85C3.81 11.88 3.32 11.94 2.82 11.96C3.02 12.79 3.63 13.43 4.49 13.56C4.7 13.59 4.91 13.58 5.11 13.58L8.51 13.58L10.92 13.58C11.17 13.58 11.41 13.59 11.66 13.53C12.42 13.34 13.01 12.72 13.18 11.96C12.91 11.95 12.65 11.92 12.39 11.9C10.76 11.78 9.14 11.73 7.51 11.74ZM7.31 10.13C7.16 10.13 7.01 10.14 6.86 10.14L6.25 10.16C5.08 10.2 3.93 10.28 2.77 10.39L1.72 10.5C1.55 10.51 1.36 10.52 1.2 10.56C0.92 10.62 0.79 10.99 1.03 11.2C1.23 11.38 1.62 11.26 1.87 11.23C3.58 11.07 5.22 10.94 6.95 10.91L8.68 10.9C10.51 10.96 12.27 11.05 14.1 11.23C14.31 11.25 14.52 11.3 14.73 11.3C15.12 11.3 15.22 10.69 14.85 10.57C14.72 10.53 14.57 10.52 14.44 10.51L13.81 10.44C12.17 10.28 10.54 10.16 8.89 10.13C8.37 10.12 7.84 10.13 7.31 10.13ZM7.08 2.22C7.07 2.66 7.08 3.09 7.08 3.53L7.08 7.11C7.08 7.27 7.08 7.42 7.08 7.58L8.92 7.58L8.92 2.22L7.08 2.22Z" fill="#000000" fill-opacity="0.880000" fill-rule="nonzero"/>
	</g>
</svg>
