<svg width="16.000000" height="16.000000" viewBox="0 0 16 16" fill="none" xmlns="http://www.w3.org/2000/svg" xmlns:xlink="http://www.w3.org/1999/xlink">
	<desc>
			Created with Pixso.
	</desc>
	<defs>
		<clipPath id="clip3410_208876">
			<rect id="Icon" width="16.000000" height="16.000000" fill="white" fill-opacity="0"/>
		</clipPath>
	</defs>
	<g clip-path="url(#clip3410_208876)">
		<path id="path" d="M6.33 1.46C6.44 1.46 6.55 1.46 6.67 1.46L9.3 1.46C9.9 1.47 10.45 1.62 10.89 2.06C11.46 2.64 11.47 3.11 11.47 3.83L14.47 3.83C14.67 3.83 14.88 3.82 15.07 3.86C15.57 3.97 15.94 4.46 15.94 4.96L15.94 12.97C15.94 13.58 15.73 14.15 15.04 14.28C14.82 14.32 14.59 14.3 14.37 14.3L9.66 14.3L1.48 14.3C1.34 14.3 1.2 14.31 1.06 14.28C0.32 14.16 0.06 13.58 0.06 12.92L0.06 5.04C0.06 4.7 0.15 4.41 0.39 4.17C0.74 3.83 1.07 3.83 1.52 3.83L4.51 3.83C4.52 3.64 4.5 3.44 4.52 3.25C4.58 2.27 5.39 1.58 6.33 1.46ZM12.3 4.61L12.3 7.29C12.3 7.4 12.29 7.51 12.3 7.62C12.03 7.54 11.77 7.56 11.5 7.57C11.48 7.32 11.5 7.07 11.5 6.82L11.5 5.35C11.5 5.11 11.5 4.86 11.5 4.61L4.5 4.61L4.5 7.7C4.22 7.67 3.98 7.63 3.69 7.7L3.69 4.93C3.69 4.82 3.7 4.71 3.69 4.61L1.98 4.61C1.7 4.61 1.42 4.6 1.14 4.61C0.76 4.7 0.85 5.14 0.85 5.43L0.85 7.73C0.85 8.01 0.83 8.47 0.9 8.73C1.09 9.48 1.68 9.62 2.33 9.62L2.92 9.62L2.92 9.02C2.92 8.76 2.87 8.4 3.21 8.34C3.49 8.29 4.59 8.32 4.9 8.33C5.33 8.35 5.3 8.72 5.3 9.03L5.3 9.62L10.69 9.62L10.69 9.05C10.69 8.56 10.68 8.3 11.25 8.3L12.25 8.3C12.58 8.3 12.96 8.23 13.07 8.64C13.12 8.81 13.1 9.39 13.1 9.6L13.1 9.62L13.66 9.62C14.6 9.62 15.15 9.25 15.15 8.25L15.15 6.38L15.15 5.4C15.15 4.75 15.2 4.61 14.54 4.61L12.3 4.61ZM15.15 10C15.03 10.07 14.92 10.15 14.8 10.21C14.21 10.5 13.7 10.37 13.1 10.41L13.1 10.99C13.1 11.77 12.97 11.72 12.26 11.72C11.89 11.72 11.52 11.73 11.15 11.72C10.66 11.71 10.69 11.43 10.69 11.03L10.69 10.41L5.3 10.41C5.29 10.62 5.3 10.84 5.3 11.05C5.3 11.57 5.29 11.72 4.76 11.72L3.67 11.72C3.46 11.72 3.19 11.77 3.03 11.59C2.86 11.41 2.93 10.68 2.92 10.41C1.97 10.41 1.65 10.52 0.85 10L0.85 12.5C0.85 13.15 0.68 13.51 1.46 13.5L1.96 13.5C2.52 13.5 3.14 13.53 3.69 13.5C3.7 13.39 3.69 13.27 3.69 13.15L3.69 12.5C3.96 12.51 4.23 12.49 4.5 12.5C4.5 12.62 4.5 12.74 4.5 12.86L4.5 13.5L11.5 13.5L11.5 12.82C11.5 12.71 11.51 12.6 11.5 12.5C11.76 12.5 12.03 12.49 12.3 12.5L12.3 13.5L14.53 13.5C15.1 13.5 15.15 13.43 15.15 12.83L15.15 10.93C15.15 10.83 15.17 10.04 15.15 10ZM8.76 2.25L6.73 2.25C6.56 2.25 6.39 2.25 6.22 2.28C5.7 2.4 5.3 2.87 5.29 3.41L5.3 3.83L7.23 3.83L10.69 3.83C10.69 3.34 10.69 2.98 10.33 2.61C9.89 2.17 9.32 2.26 8.76 2.25ZM3.69 9.11C3.7 9.72 3.69 10.34 3.69 10.95L4.22 10.95C4.31 10.95 4.41 10.96 4.5 10.95L4.5 9.74C4.5 9.53 4.49 9.32 4.5 9.11L3.97 9.11C3.88 9.11 3.78 9.11 3.69 9.11ZM11.5 9.11L11.5 10.95C11.76 10.95 12.02 10.95 12.28 10.95C12.29 10.75 12.28 10.54 12.28 10.34L12.28 9.11C12.02 9.1 11.75 9.1 11.5 9.11Z" fill="#000000" fill-opacity="0.880000" fill-rule="nonzero"/>
	</g>
</svg>
