<svg width="16.000000" height="16.000000" viewBox="0 0 16 16" fill="none" xmlns="http://www.w3.org/2000/svg" xmlns:xlink="http://www.w3.org/1999/xlink">
	<desc>
			Created with Pixso.
	</desc>
	<defs>
		<clipPath id="clip3410_209154">
			<rect id="Icon" width="16.000000" height="16.000000" fill="white" fill-opacity="0"/>
		</clipPath>
	</defs>
	<g clip-path="url(#clip3410_209154)">
		<path id="path" d="M4.06 1.53C4.31 1.51 4.79 1.82 5.03 1.94L5.47 2.16C5.65 2.25 5.91 2.34 5.99 2.55C6.09 2.82 5.85 3.16 5.55 3.09C5.3 3.03 4.55 2.61 4.3 2.48C4.12 2.76 3.93 3.16 3.77 3.46L1.73 7.27C1.6 7.51 1.4 7.83 1.3 8.08C1.41 8.09 1.53 8.08 1.65 8.08L5.56 8.08C6.29 8.08 6.99 8.26 7.1 9.14C7.12 9.25 7.11 9.36 7.13 9.47C7.64 9.15 8.34 9.13 8.84 9.47L8.84 9.45C8.84 9.08 8.89 8.73 9.16 8.46C9.55 8.07 9.92 8.08 10.42 8.08L14.69 8.08C14.63 7.9 14.44 7.61 14.34 7.43L11.94 2.97C11.85 2.81 11.77 2.63 11.66 2.48C11.32 2.6 10.56 3.14 10.28 3.08C10.04 3.03 9.91 2.81 9.96 2.58C10.03 2.31 10.68 2.06 10.95 1.92L11.42 1.68C12.02 1.38 12.08 1.52 12.4 2.1L13.61 4.34C13.8 4.7 13.98 5.07 14.19 5.43C14.52 6.02 14.84 6.62 15.15 7.22L15.56 8C15.88 8.62 15.93 8.73 15.93 9.4L15.93 11.23C15.93 11.57 15.95 11.9 15.88 12.23C15.67 13.24 14.8 14.05 13.79 14.21C13.39 14.28 12.94 14.25 12.54 14.25L11.83 14.25C11.61 14.25 11.38 14.26 11.16 14.23C9.92 14.07 8.88 12.99 8.86 11.72C8.85 11.44 8.89 10.96 8.84 10.7C8.69 9.78 7.36 9.73 7.15 10.65C7.11 10.8 7.13 10.96 7.13 11.12C7.13 12.09 7.12 12.72 6.36 13.47C5.75 14.06 5.13 14.26 4.32 14.25L2.99 14.25C2.06 14.25 1.33 14.09 0.69 13.35C0.16 12.74 0.06 12.21 0.06 11.45L0.06 9.6C0.06 8.82 0.01 8.79 0.39 8.05C0.6 7.65 0.82 7.25 1.04 6.84L3.12 2.97C3.28 2.67 3.45 2.37 3.61 2.07C3.72 1.87 3.8 1.57 4.06 1.53ZM1.21 8.9C0.8 8.95 0.86 9.31 0.86 9.61L0.86 11.24C0.86 11.48 0.85 11.71 0.89 11.95C0.99 12.69 1.59 13.26 2.31 13.41C2.54 13.46 2.77 13.46 3.01 13.46L4.18 13.46C4.74 13.46 5.14 13.41 5.62 13.09C6.06 12.68 6.31 12.36 6.33 11.71C6.34 11.19 6.33 10.68 6.33 10.16L6.33 9.6C6.33 9.43 6.36 9.17 6.24 9.04C6 8.8 5.44 8.9 5.11 8.9L1.82 8.9C1.62 8.9 1.41 8.89 1.21 8.9ZM9.95 8.9C9.5 8.98 9.64 9.72 9.64 10.05L9.64 11.14C9.64 11.42 9.62 11.72 9.68 12C9.83 12.74 10.44 13.3 11.17 13.43C11.36 13.46 11.55 13.46 11.74 13.46L12.95 13.46C13.52 13.46 13.95 13.44 14.43 13.09C15.05 12.6 15.11 12.11 15.11 11.4L15.11 9.72C15.11 8.86 15.07 8.9 14.18 8.9L9.95 8.9Z" fill="#000000" fill-opacity="0.880000" fill-rule="nonzero"/>
		<path id="path" d="M11.2 9.71L12.34 9.71C12.07 10.08 11.47 10.57 11.13 10.93C10.94 11.13 10.75 11.32 10.55 11.5L10.55 10.33C10.61 10.24 11.13 9.73 11.2 9.71Z" fill="#000000" fill-opacity="0.880000" fill-rule="nonzero"/>
		<path id="path" d="M13.55 9.71L14.35 9.71L14.35 10C14.28 10.08 14.21 10.14 14.13 10.22L12.51 11.85C12.24 12.12 11.96 12.42 11.68 12.67C11.68 12.68 11.66 12.7 11.66 12.71C11.35 12.64 11.15 12.48 10.92 12.29C11.05 12.15 11.19 12.01 11.33 11.87L13.46 9.71L13.55 9.71Z" fill="#000000" fill-opacity="0.880000" fill-rule="nonzero"/>
		<path id="path" d="M3.34 9.75C3.37 9.75 3.41 9.75 3.44 9.75C3.36 9.84 3.26 9.93 3.17 10.02L1.79 11.4L1.75 11.43L1.75 10.78C1.75 10.7 1.73 10.53 1.74 10.46C1.76 10.39 2.37 9.77 2.47 9.75C2.58 9.74 2.7 9.75 2.8 9.75L3.34 9.75Z" fill="#000000" fill-opacity="0.880000" fill-rule="nonzero"/>
		<path id="path" d="M4.69 9.71C4.86 9.71 5.34 9.68 5.43 9.77C5.66 9.98 5.29 10.23 5.15 10.36C4.98 10.52 4.82 10.69 4.65 10.85L2.87 12.64C2.83 12.68 2.8 12.72 2.76 12.76C2.56 12.63 2.28 12.42 2.16 12.22C2.22 12.15 2.3 12.08 2.37 12.02L4.35 10.05C4.42 9.98 4.62 9.75 4.69 9.71Z" fill="#000000" fill-opacity="0.880000" fill-rule="nonzero"/>
	</g>
</svg>
