<svg width="92" height="60" viewBox="0 0 92 60" fill="none" xmlns="http://www.w3.org/2000/svg">
  <path d="M12.9375 42.5641C4.92844 44.4075 0 46.9188 0 49.6864C0 55.3439 20.5949 59.9303 46 59.9303C71.4051 59.9303 92 55.3439 92 49.6864C92 46.9188 87.0716 44.4075 79.0625 42.5641V47.0298C79.0625 50.1366 77.165 52.6829 74.8219 52.6829H17.1781C14.835 52.6829 12.9375 50.1351 12.9375 47.0298V42.5641Z" fill="white" fill-opacity="0.06"/>
  <path d="M59.8187 24.7771C59.8187 22.4283 61.2476 20.4893 63.02 20.4878H79.0625V47.0298C79.0625 50.1366 77.165 52.6829 74.8219 52.6829H17.1781C14.835 52.6829 12.9375 50.1351 12.9375 47.0298V20.4878H28.98C30.7524 20.4878 32.1813 22.4239 32.1813 24.7727V24.8049C32.1813 27.1537 33.626 29.0502 35.397 29.0502H56.603C58.374 29.0502 59.8187 27.1361 59.8187 24.7873V24.7771Z" fill="white" fill-opacity="0.04" stroke="white" stroke-opacity="0.15"/>
  <path d="M79.0625 20.6494L64.4776 3.81722C63.7776 2.6699 62.7555 1.97624 61.6788 1.97624H30.3212C29.2445 1.97624 28.2224 2.6699 27.5224 3.81575L12.9375 20.6509" stroke="white" stroke-opacity="0.15"/>
</svg>
