<svg width="54.000000" height="42.000000" viewBox="0 0 54 42" fill="none" xmlns="http://www.w3.org/2000/svg" xmlns:xlink="http://www.w3.org/1999/xlink">
  <desc>
    Created with Pixso.
  </desc>
  <defs/>
  <path id="path3159" d="M27 0C22.2 0 18.36 3.59 18.36 8.05C18.37 8.53 18.4 9.21 18.45 9.79C17.63 10.14 17.57 11.73 18.26 13.36C18.54 14.01 18.89 14.51 19.28 14.92C19.37 15.38 19.34 15.59 19.46 16.11C19.78 17.07 21.05 18.95 22.22 20.51C22.33 21.7 22.45 22.9 22.22 24.26C18.85 27.05 10.16 27.14 10.18 30.02L0 42L54 42L43.81 30.02C43.8 27.56 35.1 27.14 31.77 24.26C31.64 23.16 31.61 22.05 31.68 20.96C32.75 19.33 34.17 17.18 34.53 16.11C34.66 15.57 34.71 15.2 34.81 14.74C35.13 14.35 35.4 13.92 35.63 13.36C36.29 11.81 36.25 10.33 35.54 9.88C35.58 9.26 35.61 8.59 35.63 8.05C35.63 3.59 31.79 0 27 0Z" fill="#000000" fill-opacity="1" fill-rule="nonzero"/>
  <path id="path3159" d="M18.36 8.05C18.37 8.53 18.4 9.21 18.45 9.79C17.63 10.14 17.57 11.73 18.26 13.36C18.54 14.01 18.89 14.51 19.28 14.92C19.37 15.38 19.34 15.59 19.46 16.11C19.78 17.07 21.05 18.95 22.22 20.51C22.33 21.7 22.45 22.9 22.22 24.26C18.85 27.05 10.16 27.14 10.18 30.02L0 42L54 42L43.81 30.02C43.8 27.56 35.1 27.14 31.77 24.26C31.64 23.16 31.61 22.05 31.68 20.96C32.75 19.33 34.17 17.18 34.53 16.11C34.66 15.57 34.71 15.2 34.81 14.74C35.13 14.35 35.4 13.92 35.63 13.36C36.29 11.81 36.25 10.33 35.54 9.88C35.58 9.26 35.61 8.59 35.63 8.05C35.63 3.59 31.79 0 27 0C22.2 0 18.36 3.59 18.36 8.05Z" stroke="#F0F0F0" stroke-opacity="0" stroke-width="1.000000"/>
</svg>
